# xmcd CD database file
#
# Track frame offsets:
#	150
#	23445
#	40005
#	52018
#	63353
#	70070
#	80760
#	90005
#	97125
#	110048
#	130478
#	137140
#	149765
#
# Disc length: 2196 seconds
#
# Revision: 2
# Processed by: cddbd v1.5.2PL0 Copyright (c) Steve Scherf et al.
# Submitted via: CDex 1.70beta2
#
DISCID=b908920d
DTITLE=SeigenOno - LeMystereDesVoixBulgares
DYEAR=2001
DGENRE=World/Eastern European
TTITLE0=KalimankuDenku
TTITLE1=PolegnalaETodora
TTITLE2=StratiNaAngelakiDumashe
TTITLE3=MesechinkoLyoGreilivko
TTITLE4=Svatba
TTITLE5=PilentsePee
TTITLE6=PolegnalaEShenitsa
TTITLE7=BreiIvane
TTITLE8=ErgenDyado
TTITLE9=SableyaloMiAgotse
TTITLE10=ShopskaPesen
TTITLE11=PritoritsePlaninata
TTITLE12=MirStankeLe
EXTD=YEAR: 2001
EXTT0=
EXTT1=
EXTT2=
EXTT3=
EXTT4=
EXTT5=
EXTT6=
EXTT7=
EXTT8=
EXTT9=
EXTT10=
EXTT11=
EXTT12=
PLAYORDER=
